<svg xmlns="http://www.w3.org/2000/svg" xmlns:svgjs="http://svgjs.com/svgjs" xmlns:xlink="http://www.w3.org/1999/xlink" width="288" height="288"><svg xmlns="http://www.w3.org/2000/svg" width="288" height="288" enable-background="new 0 0 212.741 212.741" viewBox="0 0 212.741 212.741"><path fill="#fff" d="M106.392 56.537c-26.287 0-47.67 21.387-47.67 47.667 0 26.283 21.384 47.67 47.67 47.67 26.29 0 47.674-21.391 47.674-47.67C154.066 77.921 132.682 56.537 106.392 56.537zM106.392 145.4c-22.754 0-41.261-18.481-41.261-41.2 0-22.74 18.506-41.232 41.261-41.232 22.74 0 41.239 18.492 41.239 41.232C147.631 126.919 129.132 145.4 106.392 145.4zM34.178 104.204c0-1.782-1.435-3.221-3.203-3.221H3.189c-1.761 0-3.189 1.442-3.189 3.221 0 1.768 1.428 3.207 3.189 3.207h27.786C32.743 107.41 34.178 105.968 34.178 104.204zM53.608 49.866c1.192 1.192 3.353 1.167 4.538 0 1.238-1.249 1.245-3.296 0-4.542l-17.78-17.765C39.747 26.94 38.952 26.6 38.1 26.6c-.852 0-1.657.34-2.262.952-1.256 1.242-1.242 3.275 0 4.527L53.608 49.866zM57.594 157.571c-.866 0-1.664.34-2.28.956L37.535 176.3c-1.256 1.256-1.256 3.31 0 4.57 1.557 1.528 2.985 1.542 4.57-.032l17.765-17.773c1.238-1.249 1.238-3.296-.014-4.549C59.259 157.908 58.446 157.571 57.594 157.571zM209.545 100.979h-27.779c-1.768 0-3.203 1.442-3.203 3.221 0 1.768 1.432 3.207 3.203 3.207h27.779c1.768 0 3.196-1.442 3.196-3.207C212.741 102.421 211.313 100.979 209.545 100.979zM159.155 49.848l17.758-17.773c1.242-1.249 1.249-3.282.007-4.506-.619-.626-1.424-.966-2.28-.966-.848 0-1.657.34-2.262.952l-17.79 17.78c-1.249 1.238-1.242 3.285.014 4.542C155.766 51.029 157.92 51.072 159.155 49.848zM157.419 158.531c-.612-.623-1.414-.963-2.273-.963-.848 0-1.65.34-2.265.956-1.267 1.274-1.267 3.271 0 4.542l17.765 17.805c1.016.998 2.623 1.893 4.585-.039 1.22-1.224 1.22-3.278-.036-4.534L157.419 158.531zM104.431 178.955c-1.714.014-3.157 1.449-3.157 3.207v25.184c0 .848.333 1.643.923 2.226.619.63 1.414.963 2.294.981 1.768-.029 3.207-1.471 3.214-3.235l-.007-25.156C107.698 180.408 106.235 178.969 104.431 178.955zM104.488 33.768c1.768-.029 3.207-1.471 3.214-3.239l-.007-25.127c0-1.761-1.464-3.196-3.267-3.214-1.714.021-3.157 1.457-3.157 3.214v25.156c0 1.088.505 1.814.923 2.23C102.817 33.414 103.611 33.747 104.488 33.768z" class="color010002 svgShape"/></svg></svg>